<?xml version="1.0" standalone="no"?>
<!DOCTYPE svg PUBLIC "-//W3C//DTD SVG 1.1//EN" "http://www.w3.org/Graphics/SVG/1.1/DTD/svg11.dtd" >
<svg xmlns="http://www.w3.org/2000/svg">
<metadata>
Created by FontForge 20110222 at Thu Jun 22 14:15:07 2017
 By root
</metadata>
<defs>
<font id="tc-icons" horiz-adv-x="512" >
  <font-face 
    font-family="tc-icons"
    font-weight="500"
    font-stretch="normal"
    units-per-em="512"
    panose-1="2 0 6 9 0 0 0 0 0 0"
    ascent="448"
    descent="-64"
    bbox="-0.285714 -64 512.333 448"
    underline-thickness="25"
    underline-position="-52"
    unicode-range="U+F101-F111"
  />
<missing-glyph 
d="M17 0v341h136v-341h-136zM34 17h102v307h-102v-307z" />
    <glyph glyph-name=".notdef" 
d="M17 0v341h136v-341h-136zM34 17h102v307h-102v-307z" />
    <glyph glyph-name=".null" horiz-adv-x="0" 
 />
    <glyph glyph-name="nonmarkingreturn" 
 />
    <glyph glyph-name="car-compact" unicode="&#xf101;" 
d="M507 194q10 -16 1 -51q-1 -4 -4 -5q-16 -4 -48 -6v12q27 2 41 5q3 13 3 24q-9 3 -33 7q-7 1 -12 5l-19 18q-34 5 -72 7q-176 9 -216 11q-11 0 -29 16q-5 -2 -11 -4q-27 -10 -42 -14v-1q6 -10 -4 -16l-21 -14q-2 -1 -4 -1l-18 1l-5 -10q-4 -8 0 -17l4 -14q27 -2 51 -3v4
q0 17 12.5 28.5t29.5 9.5q12 0 22 -10q16 -16 13 -35h226q-3 21 18 38q10 8 20 8q16 0 27.5 -11.5t11.5 -27.5q0 -12 -8 -23q-11 -16 -31 -16q-23 0 -34 21q-37 -1 -173 -1h-59h-2q-12 -20 -34 -20q-25 0 -35 23q-11 0 -59 4q-4 0 -6 4l-6 19q-4 11 1 22l16 36q4 8 13 8
q24 2 72 19q27 10 41 14q43 11 81 12q26 0 49 -4q35 -8 91 -44q37 -2 75 -8q59 -8 66 -20zM385 155q-4 -15 6.5 -26t26.5 -7q14 4 18 19t-7 26t-26 7t-18 -19zM82 155q-4 -15 7 -26t26 -7t19 19t-7 26t-26 7t-19 -19zM41 203l15 9l-2 4q-10 -2 -19 -2q-4 -1 -6 -5l-4 -9h5
q6 -1 11 3zM224 230v11v15q-34 1 -76 -10q-7 -2 -16 -5q11 -8 16 -9h10t19 -0.5t23.5 -1t23.5 -0.5zM236 229q24 -1 58.5 -3t47.5 -3q-40 25 -70 31q-11 3 -17 3h-19q-1 -20 0 -28zM470 191q-5 1 -8 4l-5 5q36 -7 40 -12l1 -2q-11 3 -28 5v0z" />
    <glyph glyph-name="car-family" unicode="&#xf102;" 
d="M20 228l-6 -40q-2 -22 -2 -44q14 -2 34 -4q2 17 15 28.5t30 11.5q19 0 32.5 -13.5t13.5 -32.5v-4q25 -2 38 -2q38 -2 201 -4q-1 5 -1 10q0 18 12.5 31.5t30.5 14.5q24 1 40 -22q10 -15 7 -32q-2 -10 -8 -19q-14 -18 -37 -18q-26 0 -39 23q-170 2 -207 3q-14 1 -40 3
q-5 -13 -16.5 -21t-26.5 -8q-17 0 -29.5 11t-15.5 27q-16 2 -41 5q-5 1 -5 6q0 36 4 72.5t8 53.5t5 21q1 3 5 4q60 12 159 13t113 -7q10 -3 41 -21q20 -12 31 -17q14 -7 26 -11q10 -3 34 -12.5t43.5 -17.5l19.5 -8q2 0 3 -1q12 -9 16.5 -27t3 -32.5t-4.5 -22.5
q-4 -8 -33 -11v12q18 2 22 5q7 18 2 42l-13 1q-9 1 -16 7q-3 3 -18 17q-6 6 -12 14l-2 4l-1 1q-38 15 -46 17q-7 1 -19 7q0 -25 -3 -29q-3 -2 -6 -2h-2l-73 7q-140 9 -161 11l-77 11q-6 1 -5 7l2 35q-7 -1 -11 -2q-8 -1 -9 -9q0 -1 -2.5 -18t-3.5 -24zM420 168
q-14 0 -23.5 -10t-9.5 -23.5t9.5 -23.5t23.5 -10t24 10t10 23.5t-10 23.5t-24 10zM91 168q-14 0 -23.5 -10t-9.5 -23.5t9.5 -23.5t23.5 -10t24 10t10 23.5t-10 23.5t-24 10zM115 242q1 2 3 22t3 24q-35 -2 -63 -5l-2 -33q37 -5 59 -8zM128 240q14 -1 99 -7q0 5 -3 29t-4 28
q-42 1 -86 -1q-1 -5 -4 -26t-3 -22zM288 229l71 -6l-1 24q-9 5 -29 16q-30 18 -39 21q-11 4 -57 6q1 -6 3.5 -30t3.5 -28q43 -3 48 -3zM488 186h6q-3 6 -8 10q-1 0 -11.5 5.5t-15.5 6.5l8 -8l8 -8q6 -5 13 -6z" />
    <glyph glyph-name="car-mini" unicode="&#xf103;" 
d="M505 177q7 -26 7 -61q0 -6 -6 -6h-48v12h41q0 28 -5 48h-8t-12 1t-10.5 3.5t-9.5 6.5q-9 10 -8 36q-23 8 -54 13q-262 8 -293 12q-3 1 -4.5 4t0.5 6q15 25 39 47q-31 -2 -54 -7q-12 -11 -26 -30t-16 -29q18 0 22 -1q3 0 4.5 -3t-0.5 -6q-2 -6 -6.5 -13t-16.5 -17.5
t-23 -10.5h-1q-9 -27 -4 -46q2 -3 18 -7v1.5v1.5q0 20 14 34t34 14t34 -14t14 -34q0 -5 -2 -10h223h7q-1 5 -1 10q0 20 14 34t33.5 14t33.5 -14t14 -34q0 -5 -1 -10q-1 -6 -5 -13v-1q-2 -2 -3 -4q-14 -20 -38 -20q-29 0 -43 26h-11q-177 0 -227 -1q-14 -25 -42 -25
q-16 0 -28 9t-17 23q-29 6 -33 15q-1 2 -1 11t2.5 27t9 37.5t22 45.5t38.5 49q1 3 4 3v0q43 9 109.5 10.5t95.5 -3.5q14 -2 33.5 -12.5t34 -21t29.5 -22t17 -12.5q78 -13 102 -46q5 -7 8 -19v-1zM401.5 167q-14.5 0 -24.5 -10.5t-10 -25t10 -24.5t24.5 -10t25 10t10.5 24.5
t-10.5 25t-25 10.5zM78.5 167q-14.5 0 -24.5 -10.5t-10 -25t10 -24.5t24.5 -10t25 10t10.5 24.5t-10.5 25t-25 10.5zM48 220h-17q-6 -10 -9 -24q13 3 26 24zM176 251q2 12 9 50h-23q-5 -1 -9 -4q-20 -14 -38 -38q-2 -2 -1 -3.5t3 -1.5q19 -2 59 -3zM363 244q1 0 1.5 1
t-0.5 2q-8 5 -27 19.5t-32.5 22.5t-25.5 9q-29 4 -81 4q-7 -38 -9 -52l62.5 -2.5t65 -2.5t46.5 -1zM464 189q-3 3 -5 22q19 -9 28 -21q1 -3 3 -7q-2 0 -8.5 0.5t-11 1.5t-6.5 4v0z" />
    <glyph glyph-name="car" unicode="&#xf104;" 
d="M461 212q12 -2 20.5 -12.5t8.5 -22.5v-29q0 -12 -8.5 -20.5t-20.5 -8.5h-15q0 30 -21.5 51t-51.5 21t-51 -21t-21 -51h-87q0 30 -21.5 51t-51.5 21t-51 -21t-21 -51h-15q-12 0 -20.5 8.5t-8.5 20.5v58q0 12 8.5 20.5t20.5 8.5h29l31 61q5 11 17.5 19t24.5 8h130
q12 0 25 -7.5t20 -17.5l41 -67q10 -1 15 -2zM228 235v58h-43q-4 0 -9.5 -3t-6.5 -7l-24 -48h83zM257 235h79l-30 47q-2 4 -8.5 7.5t-11.5 3.5h-29v-58zM141 177q24 0 41 -17t17 -41.5t-17 -41.5t-41 -17t-41 17t-17 41.5t17 41.5t41 17zM141 89q12 0 20.5 8.5t8.5 21
t-8.5 21t-20.5 8.5t-20.5 -8.5t-8.5 -21t8.5 -21t20.5 -8.5zM373 177q24 0 41.5 -17t17.5 -41.5t-17.5 -41.5t-41.5 -17t-41 17t-17 41.5t17 41.5t41 17zM373 89q12 0 20.5 8.5t8.5 21t-8.5 21t-20.5 8.5t-20.5 -8.5t-8.5 -21t8.5 -21t20.5 -8.5z" />
    <glyph glyph-name="citroen" unicode="&#xf105;" 
d="M23 127l238 293l222 -290l-223 175zM23 -31l238 294l223 -291l-223 176z" />
    <glyph glyph-name="coin" unicode="&#xf106;" 
d="M478 271q34 -21 34 -46v-66q0 -22 -25 -40q3 -7 3 -14v-66q0 -40 -72.5 -63.5t-167 -23.5t-167 23.5t-72.5 63.5v55q0 2 1 4q-1 3 -1 7q0 22 25 40q-3 7 -3 14v55v4v7t1 8q-34 20 -34 46v55q0 1 1 3q-1 4 -1 8q0 40 72.5 63.5t167 23.5t167 -23.5t72.5 -63.5v-66
q0 -4 -1 -8zM81 388q-59 -20 -59 -43.5t59 -43.5q66 -22 159 -22t158 22q60 20 60 43.5t-60 43.5q-65 22 -158 22t-159 -22zM458 306q-17 -12 -44 -23v-41q44 18 44 37v27zM392 276q-20 -5 -43 -9v-44q23 5 43 11v42zM327 263q-21 -3 -44 -4v-44q23 2 44 5v43zM261 258
q-11 -1 -21.5 -1t-21.5 1v-44h21.5h21.5v44zM196 259q-22 1 -43 4v-43q21 -3 43 -5v44zM131 267q-24 4 -44 9v-42q20 -6 44 -11v44zM22 279q0 -19 43 -37v41q-27 11 -43 23v-27zM54 187v-28q0 -19 44 -37v42q-27 10 -44 23zM76 2v42q-27 10 -43 23v-28q0 -19 43 -37z
M142 -17v44q-24 4 -44 10v-43q20 -6 44 -11zM207 -24v43l-44 4v-43q22 -3 44 -4zM272 -26v44h-21.5h-21.5v-44h21.5h21.5zM338 -20v43l-44 -4v-43q23 1 44 4zM403 -6v43q-20 -6 -44 -10v-44q24 5 44 11zM468 39v28q-16 -13 -43 -23v-42q43 18 43 37zM409 61q59 20 59 44v3
q-70 -36 -196 -36q-72 0 -135 14.5t-89 40.5q-15 -11 -15 -22q0 -24 59 -44q66 -22 159 -22t158 22zM120 114q20 -6 43 -11v44q-23 4 -43 10v-43zM185 100q21 -3 44 -5v44q-23 1 -44 4v-43zM251 94h21.5h21.5v44h-21.5h-21.5v-44zM316 95q22 2 43 5v43q-21 -3 -43 -4v-44z
M381 103q24 5 44 11v43q-20 -6 -44 -10v-44zM490 159v28q-16 -13 -43 -23v-42q43 18 43 37zM431 181q59 20 59 44q0 13 -22 26q-23 -27 -88 -43t-140 -16q-114 0 -185 30q3 -22 59 -41q65 -22 158 -22t159 22z" />
    <glyph glyph-name="halloween309" unicode="&#xf107;" 
d="M487 -24.5q1 -5.5 -3 -9.5q-29 -30 -68 -30q-31 0 -57 24q-13 12 -23 12t-28 -15q-19 -15 -31 -15q-18 0 -33 26q-5 10 -12 10q-9 0 -34 -20q-24 -18 -35 -18q-15 0 -20 20q-3 16 -36 16q-31 0 -69 -12q-10 -3 -13 6t6 13q24 9 51.5 26t34.5 35q3 9 0 17q-50 103 -50 187
q0 87 45 140q50 59 142 60h2h2q92 -1 142 -60q45 -53 45 -140q0 -84 -50 -187q-3 -8 0 -17q7 -18 34.5 -35t51.5 -26q5 -2 6 -7.5zM171.5 254q15.5 0 26.5 10t11 24.5t-11 24.5t-26.5 10t-27 -10t-11.5 -24.5t11.5 -24.5t27 -10zM256 103q16 0 28 17t12 40t-12 40t-28 17
t-28 -17t-12 -40t12 -40t28 -17zM340.5 254q15.5 0 27 10t11.5 24.5t-11.5 24.5t-27 10t-26.5 -10t-11 -24.5t11 -24.5t26.5 -10z" />
    <glyph glyph-name="key" unicode="&#xf108;" 
d="M511 107q5 -29 -19 -45q-65 -42 -142 -45h-1q-29 0 -41 26q-46 97 -68 203q-9 -5 -19 -7l-7 -47q-2 -14 -14 -22q-8 -5 -18 -5q-4 0 -8 1l-27 7l-51 -201q-1 -5 -6 -7l-50 -16q-2 -1 -3 -1q-5 0 -8 4l-27 36q-4 5 -1 11l15 24l3 46q0 3 2 6l11 14l2 40q0 2 2 4l15 26
l2 38l-28 7q-14 4 -20.5 16.5t-1.5 25.5l34 95q5 12 16 17.5t22 2.5l26 -7q6 33 30 55t57 26q40 5 72.5 -21t36.5 -67q1 -2 1 -5q46 19 98 21q29 2 42 -25q52 -111 73 -231zM106 300q-3 0 -6 -2t-4 -6t1 -7.5t6 -4.5l39 -10q10 -3 12.5 7t-7.5 13l-17 4l1 -1q5 -9 -3 -14
q-2 -1 -5 -1q-5 0 -8 4q-5 8 -9 18zM33 15l-12 -20l11 -15l54 209l-14 3l-2 -36l-2 -4l-15 -26l-2 -41q0 -3 -2 -5l-11 -15l-3 -46zM129 178l-8 2l-17 4l-54 -212l29 10zM195 195l15 100q1 11 -10 14l-81 21v-3q0 -5 2 -11l31 -8q11 -3 17.5 -13.5t3.5 -22t-14 -18.5
q-7 -4 -15 -4q-3 0 -7 1l-39 10q-11 3 -17.5 13.5t-3.5 22.5t14 18q4 3 10 4q-1 3 -1 6q-1 5 -1 10l-28 7q-11 3 -15 -8l-35 -94q-2 -6 0.5 -11t8.5 -6l149 -38q6 -2 10.5 1.5t5.5 8.5zM224 260q6 2 12 5l-1 8q-5 29 20 46q11 7 24 14q0 6 -1 12q-3 33 -29 54t-59 17
q-27 -3 -46.5 -21.5t-24.5 -44.5l86 -22q12 -3 19 -13.5t5 -22.5zM481 78q14 9 11 26q-20 118 -71 225q-7 15 -23 15h-1q-72 -3 -132 -42q-13 -8 -11 -24q9 8 15 19q4 8 12.5 3.5t3.5 -13.5q-10 -18 -27 -31q21 -107 68 -205q7 -15 24 -15q71 3 131 42zM460 144l9 -28
q2 -8 -1.5 -15t-11.5 -10l-93 -29q-3 -1 -6 -1q-15 0 -19 13l-9 29q-3 7 1 14.5t12 9.5l93 30q8 3 15.5 -1t9.5 -12zM357 80l37 12l-9 29l-38 -12v-1l9 -28h1zM450 110h1l-9 28q0 1 -1 1l-38 -12l10 -29zM302 241q-1 -1 -3 -1q-7 0 -9 7q-3 9 6 12l101 32q9 3 12 -6.5
t-7 -12.5zM418 255q3 -9 -6 -12l-101 -32h-3q-7 0 -9 6q-3 10 6 13l101 31q9 3 12 -6z" />
    <glyph glyph-name="lock" unicode="&#xf109;" 
d="M390 248q18 0 31 -13t13 -32v-222q0 -19 -13 -32t-31 -13h-268q-18 0 -31 13t-13 32v222q0 19 13 32t31 13v66q0 56 39.5 95t94.5 39t94.5 -39t39.5 -95v-66zM167 314v-66h178v66q0 37 -26 63t-63 26t-63 -26t-26 -63zM390 -19v222h-268v-222h268zM234 76q-23 13 -23 38
q0 19 13.5 32t31.5 13t31.5 -13t13.5 -32q0 -25 -23 -38v-29q0 -9 -6.5 -15.5t-15.5 -6.5t-15.5 6.5t-6.5 15.5v29z" />
    <glyph glyph-name="logo" unicode="&#xf10a;" 
d="M349 313h46v-92h-46q-2 0 -5 -0.5t-11 -3t-14 -6.5t-11 -13.5t-5 -22.5q0 7 -1.5 19.5t-13 41t-31.5 46.5q35 31 92 31zM257 282q-36 31 -93 31h-46v-92h46q2 0 5 -0.5t11 -3t14.5 -6.5t11 -13.5t4.5 -22.5q0 7 1.5 19.5t13 41t32.5 46.5v0zM257 282q-21 -18 -32.5 -45
t-12.5 -44l-2 -18v-138h93v138q0 7 -1.5 19.5t-13 41t-31.5 46.5v0zM0 192q0 256 256 256t256 -256t-256 -256t-256 256z" />
    <glyph glyph-name="parked-car" unicode="&#xf10b;" 
d="M363 226q7 0 11.5 -4.5t4.5 -11.5v-11q0 -9 -6 -15t-14 -6h-3l3 -7q10 -23 10 -48v-96q0 -9 -6 -15t-14 -6h-27q-8 0 -14 6t-6 15v24h-226v-24q0 -9 -6 -15t-14 -6h-26q-9 0 -14.5 6t-5.5 15v96q0 25 9 48l3 7h-2q-8 0 -14 6t-6 15v11q0 7 4.5 11.5t11.5 4.5q2 0 5 -1
l18 -5l20 49q5 10 15.5 17t21.5 7h186q11 0 22 -7t15 -17l20 -49l19 5q3 1 5 1zM54 189q-3 -6 0 -10.5t10 -4.5h251q6 0 9 4.5t0 10.5l-30 73q-6 15 -22 15h-166q-16 0 -22 -15zM121 97v27q0 8 -8 8h-57q-8 0 -8 -8v-27q0 -8 8 -8h57q8 0 8 8zM330 97v27q0 8 -8 8h-57
q-8 0 -8 -8v-27q0 -8 8 -8h57q8 0 8 8zM487 378q10 0 17.5 -7.5t7.5 -18.5v-95q0 -10 -7.5 -17.5t-17.5 -7.5h-38v-214q0 -9 -9.5 -9t-9.5 9v214h-38q-11 0 -18.5 7.5t-7.5 17.5v95q0 11 7.5 18.5t18.5 7.5h95zM465.5 298.5q8.5 7.5 8.5 21.5q0 15 -8.5 22t-29.5 7h-27
q-4 0 -4 -4v-80q0 -5 4 -5h11q4 0 4 5v23q0 3 3 3h14q16 0 24.5 7.5zM450 330q4 -3 4 -10t-4 -9q-2 -2 -9 -3h-8h-6q-3 0 -3 3v19q0 3 3 3h10q9 0 13 -3z" />
    <glyph glyph-name="parking" unicode="&#xf10c;" 
d="M251 281q24 0 37 -11t13 -30q0 -22 -14.5 -34t-40.5 -12q-14 0 -21 1v84q10 2 26 2zM446 448q25 0 42.5 -18t17.5 -43v-390q0 -25 -17.5 -43t-42.5 -18h-380q-25 0 -42.5 18t-17.5 43v390q0 25 17.5 43t42.5 18h380zM469 6v371q0 14 -9.5 23.5t-23.5 9.5h-361
q-13 0 -23 -9.5t-10 -23.5v-371q0 -13 10 -23t23 -10h361q14 0 23.5 10t9.5 23zM436 387q10 0 10 -10v-371q0 -9 -10 -9h-361q-9 0 -9 9v371q0 10 9 10h361zM339 174q26 25 26 67t-30 66q-29 22 -87 22q-51 0 -86 -6v-278h63v101q10 -1 22 -1q60 0 92 29z" />
    <glyph glyph-name="portable-wifi-off" unicode="&#xf10d;" 
d="M375 144l-35 35q1 7 1 13q0 35 -25 60t-60 25q-5 0 -13 -1l-35 35q23 9 48 9q53 0 90.5 -37.5t37.5 -90.5q0 -25 -9 -48zM256 363q-42 0 -80 -20l-31 31q52 31 111 31q88 0 150.5 -62.5t62.5 -150.5q0 -60 -31 -111l-32 31q21 38 21 80q0 71 -50 121t-121 50zM70 395
l21 -22l357 -357l-27 -27l-160 161h-1l-4 -1q-18 0 -30.5 12.5t-12.5 30.5l1 4l-34 34q-9 -19 -9 -38q0 -49 42 -74l-21 -37q-29 17 -46.5 46.5t-17.5 64.5q0 38 20 69l-30 31q-33 -44 -33 -100q0 -47 23.5 -86t61.5 -62l-21 -37q-48 29 -77 78t-29 107q0 73 44 131l-44 45z
" />
    <glyph glyph-name="portable-wifi" unicode="&#xf10e;" 
d="M256 213q18 0 30.5 -12.5t12.5 -30t-12.5 -30t-30.5 -12.5t-30.5 12.5t-12.5 30t12.5 30t30.5 12.5zM384 171q0 -35 -17.5 -64.5t-46.5 -46.5l-21 37q42 25 42 74q0 35 -25 60t-60 25t-60 -25t-25 -60q0 -49 42 -74l-21 -37q-29 17 -46.5 46.5t-17.5 64.5q0 53 37.5 90.5
t90.5 37.5t90.5 -37.5t37.5 -90.5zM256 384q88 0 150.5 -62.5t62.5 -150.5q0 -59 -29 -108t-77 -77l-22 37q39 23 62.5 62t23.5 86q0 70 -50 120t-121 50t-121 -50t-50 -120q0 -47 23.5 -86t61.5 -62l-21 -37q-48 28 -77 77t-29 108q0 88 62.5 150.5t150.5 62.5z" />
    <glyph glyph-name="qr-code" unicode="&#xf10f;" 
d="M192 448v-192h-192v192h192zM160 288v128h-128v-128h128zM64 384h64v-64h-64v64zM0 -64v192h192v-192h-192zM32 96v-128h128v128h-128zM64 64h64v-64h-64v64zM320 448h192v-192h-192v192zM480 288v128h-128v-128h128zM384 384h64v-64h-64v64zM64 224v-32h32v-32h-96v64
h64zM224 160h64v-64h-64v64zM96 224h64v-32h-64v32zM288 64v-32v-32h-32v32h-32v32h64zM192 224h32v-64h-64v32h32v32zM256 320h32v-64h-32v64zM288 192h-32v32h96v-64h-64v32zM224 256h32v-32h-32v32zM288 0h64v-64h-64v64zM224 0h32v-64h-32v64zM288 96h32v-32h-32v32z
M288 352h-32v-32h-32v128h32v-32h32v-64zM384 0h32v-64h-32v64zM384 64h64v-32h-64v32zM352 32h32v-32h-32v32zM320 64h32v-32h-32v32zM448 128h32h32v-64h-32v32h-32v32zM480 32v-32h32v-64h-64v96h32zM320 128h32v32h64v-64h-96v32zM384 224h64h64v-64h-64v32h-64v32z" />
    <glyph glyph-name="security-camera" unicode="&#xf110;" 
d="M504 279q10 -2 8 -12l-27 -98q-1 -4 -4 -6q-3 -1 -5 -1h-3l-84 23q-15 -11 -33 -11q-7 0 -14 2l-99 27l-41 -155q-2 -8 -10 -8h-73q-7 -19 -28 -20v-12q0 -20 -15 -34t-37 -14h-29q-10 0 -10 10v161q0 10 10 10h29q22 0 37 -14t15 -34v-12q21 0 28 -21h66l39 148l-186 50
q-10 2 -7 12l25 96q0 1 0.5 2t0.5 2l13 47q1 4 4.5 6t7.5 1l401 -107q5 -2 7 -7t-2 -10l-11 -13zM71 8v85q0 12 -9.5 20t-22.5 8h-19v-141h10v112q0 10 10 10t10 -10v-110q21 6 21 26zM91 41q10 0 10 9.5t-10 10.5v-20zM347 196q5 -2 9 -2q15 0 26 11l80 96l-375 101l-8 -29
l313 -84q9 -3 7 -13q-2 -7 -10 -7h-3l-312 84l-21 -78zM469 184l20 78l-27 8l-57 -69z" />
    <glyph glyph-name="trailer" unicode="&#xf111;" 
d="M94 134v8h13q2 11 9.5 19t19.5 9q13 2 24 -6t13 -22h207v138q0 7 6 7h2h51q4 0 8 -3l61 -54q4 -3 4 -9v-75q0 -5 -3.5 -8.5t-8.5 -3.5h-25q-2 -11 -10 -19t-19 -10q-14 -1 -24.5 7t-12.5 22h-236q-2 -11 -10 -19t-19 -10q-13 -1 -24 7t-13 22h-13zM140 113q10 0 17.5 7.5
t7.5 17.5t-7.5 17.5t-17.5 7.5t-17.5 -7.5t-7.5 -17.5t7.5 -17.5t17.5 -7.5zM441.5 113q10.5 0 18 7.5t7.5 17.5t-7.5 17.5t-18 7.5t-17.5 -7.5t-7 -17.5t7 -17.5t17.5 -7.5zM504 146v75q0 2 -2 3l-61 53q-1 1 -2 1h-46q-5 0 -5 -5v-131h21q1 11 9 19t19 9q14 2 25 -6
t13 -22h25q4 0 4 4zM347 183q4 -13 3 -28q0 -2 -3 -2h-22v5h19q0 13 -2 22q-16 1 -18 5q-5 5 -4 16q-11 4 -25 7q-121 3 -133 5q-2 0 -2.5 1.5t0.5 2.5q6 12 18 22q-15 -1 -25 -3q-17 -15 -19 -27q8 0 10 -1q1 0 1.5 -1t0.5 -3q-9 -18 -22 -18q-4 -13 -2 -21q1 -2 9 -3v1
q0 9 6 15.5t15 6.5t15.5 -6.5t6.5 -15.5v-5h101h3v5q0 9 6.5 15.5t15.5 6.5t15 -6.5t6 -15.5v-5l-2 -6h-1q0 -1 -1 -2q-6 -9 -17 -9q-13 0 -20 12h-5q-86 0 -103 -1q-3 -5 -8 -8l-2 6q6 5 6 13q0 6 -4.5 11t-11 5t-11.5 -5t-5 -11v-1q-6 0 -11 -5q-7 2 -8 5v1
q-1 2 -0.5 11.5t8.5 29t24 36.5q1 1 2 1v0q47 10 93 3q7 0 16 -5t15.5 -10t13.5 -10t7 -6q36 -5 47 -20q2 -3 4 -9v-1zM299.5 179q-6.5 0 -11 -5t-4.5 -11.5t4.5 -11t11 -4.5t11.5 4.5t5 11t-5 11.5t-11.5 5zM138 203h-7q-3 -5 -5 -11q6 1 12 11zM197 217q1 6 4 23h-11
q-2 0 -4 -2q-9 -6 -17 -17q-2 -3 1 -3q9 0 27 -1zM282 214q1 0 1 0.5t-1 0.5q-3 3 -11.5 9.5t-15 10t-11.5 4.5q-13 1 -37 1q-3 -17 -4 -23q8 0 38 -1.5t41 -1.5zM328 189q-1 1 -2 10q8 -4 12 -10q1 -1 2 -3q-11 2 -12 3v0zM420 278v9h-24v-44q0 -11 6 -16.5t11 -6.5h6h71h4
v20h-9v-12h-66h-4t-6 4t-4 11v35h15zM83 187h-21q-4 0 -4 -4t4 -4h21q4 0 4 4t-4 4v0zM83 202h-46q-4 0 -4 -4.5t4 -4.5h46q4 0 4 4.5t-4 4.5v0zM83 216h-79q-4 0 -4 -4t4 -4h79q4 0 4 4t-4 4v0z" />
  </font>
</defs>
</svg>
